<svg id="Capa_1" enable-background="new 0 0 512 512" height="512" viewBox="0 0 512 512" width="512" xmlns="http://www.w3.org/2000/svg"><g><path d="m467 51.919h-422c-24.813 0-45 20.187-45 45v318.162c0 24.813 20.187 45 45 45h422c24.813 0 45-20.187 45-45v-318.162c0-24.813-20.187-45-45-45zm15 363.162c0 8.271-6.729 15-15 15h-422c-8.271 0-15-6.729-15-15v-318.162c0-8.271 6.729-15 15-15h422c8.271 0 15 6.729 15 15z"/><path d="m421 111.919h30v288.162h-30z"/><path d="m361 111.919h30v228.162h-30z"/><path d="m301 111.919h30v228.162h-30z"/><path d="m241 111.919h30v228.162h-30z"/><path d="m181 111.919h30v288.162h-30z"/><path d="m121 111.919h30v228.162h-30z"/><path d="m61 111.919h30v228.162h-30z"/><path d="m361 370.081h30v30h-30z"/><path d="m301 370.081h30v30h-30z"/><path d="m241 370.081h30v30h-30z"/><path d="m121 370.081h30v30h-30z"/><path d="m61 370.081h30v30h-30z"/></g></svg>